PathFileType  4	(X/Y/Z) C:\Users\antoi\Documents\MyRepositories\mobilecap\ResultsAnalysis
DataRate	CameraRate	NumFrames	NumMarkers	Units	OrigDataRate	OrigDataStartFrame	OrigNumFrames
100.0	100.0	4	51	mm	100.0	46	121
Frame#	Time	r_knee			r_shank_antsup			r_ankle			r_calc			r_5meta			r_toe			L_knee			L_shank_antsup			L_ankle			L_calc			L_5meta			L_toe			r_sh2			r_sh3			r_sh4			L_sh2			L_sh3			r_thigh1			r_thigh2			r_thigh3			r_thigh4			r_thigh5			L_thigh1			L_thigh2			L_thigh3			L_thigh4			r.ASIS			r.PSIS			L.ASIS			L.PSIS			C7			R_Shoulder			L_Shoulder			R_Sternum			L_Sternum			R_humerus			R_elbow_med			R_elbow_lat			R_forearm			R_wrist_radius			R_wrist_ulna			L_humerus			L_elbow_med			L_elbow_lat			L_forearm			L_wrist_radius			L_wrist_ulna			R_HJC			L_HJC			R_HJC_reg			L_HJC_reg			
		X1	Y1	Z1	X2	Y2	Z2	X3	Y3	Z3	X4	Y4	Z4	X5	Y5	Z5	X6	Y6	Z6	X7	Y7	Z7	X8	Y8	Z8	X9	Y9	Z9	X10	Y10	Z10	X11	Y11	Z11	X12	Y12	Z12	X13	Y13	Z13	X14	Y14	Z14	X15	Y15	Z15	X16	Y16	Z16	X17	Y17	Z17	X18	Y18	Z18	X19	Y19	Z19	X20	Y20	Z20	X21	Y21	Z21	X22	Y22	Z22	X23	Y23	Z23	X24	Y24	Z24	X25	Y25	Z25	X26	Y26	Z26	X27	Y27	Z27	X28	Y28	Z28	X29	Y29	Z29	X30	Y30	Z30	X31	Y31	Z31	X32	Y32	Z32	X33	Y33	Z33	X34	Y34	Z34	X35	Y35	Z35	X36	Y36	Z36	X37	Y37	Z37	X38	Y38	Z38	X39	Y39	Z39	X40	Y40	Z40	X41	Y41	Z41	X42	Y42	Z42	X43	Y43	Z43	X44	Y44	Z44	X45	Y45	Z45	X46	Y46	Z46	X47	Y47	Z47	X48	Y48	Z48	X49	Y49	Z49	X50	Y50	Z50	X51	Y51	Z51	

46	0.45000000	307.88161	450.65433	-42.28088	290.21354	377.13881	-25.32058	148.67322	107.91933	-83.59636	70.84887	83.62487	-119.50851	239.58610	43.35281	-63.48969	283.55603	57.22351	-121.33617	557.93058	459.83821	-295.20043	606.56946	419.65659	-299.45292	722.67541	127.62361	-285.80080	683.35503	59.78135	-239.60277	827.54443	133.32978	-313.31998	857.38707	180.68268	-260.27484	244.91182	273.58133	-29.00653	220.44107	405.73560	-35.25277	168.42210	303.38684	-44.50425	525.18493	385.34248	-317.06275	586.68666	279.03884	-321.85112	460.81938	741.94012	-25.10957	440.95362	629.16033	-24.93217	385.55086	617.17741	9.83694	360.68935	756.49746	30.75116	334.58990	643.70429	11.16056	511.37655	741.98930	-321.80897	560.77172	611.88467	-309.00600	404.92683	700.09771	-341.10438	463.51152	569.40797	-324.07693	470.18896	893.55951	-29.52911	289.41465	912.71231	-113.91681	478.64419	891.50546	-288.08171	289.45527	900.21698	-219.72072	364.26692	1377.24463	-152.91281	430.53768	1317.51917	-6.47588	403.27529	1323.77841	-322.17086	476.57253	1288.69377	-144.98042	474.36261	1289.92942	-189.93035	489.93641	1092.89689	77.51186	457.36341	975.30570	48.76862	489.09930	1007.89406	106.96829	586.08884	930.93165	98.66014	659.91602	838.04338	86.88146	632.55467	815.10094	113.04981	405.72480	1195.66803	-385.31618	312.14095	997.94386	-345.10650	306.28310	1014.72203	-405.06987	307.93750	918.93626	-454.52213	279.09409	796.14824	-468.86671	244.28969	802.21549	-465.48248	405.53737	818.39011	-60.39547	416.33543	817.01616	-260.37995	406.62055	825.14340	-57.55382	406.68604	805.11736	-227.11775	
47	0.46000000	318.94172	449.17588	-42.45440	299.84739	375.93930	-25.48295	150.88196	110.42078	-83.17768	72.56380	87.66787	-119.18741	240.18301	43.25985	-63.38460	284.41531	56.62932	-121.12817	572.54013	457.87202	-295.30290	621.70541	417.78328	-299.09141	739.33669	126.34248	-284.83421	700.51338	57.73588	-239.14574	844.49131	133.54293	-311.19583	872.91775	181.53148	-257.88364	251.82865	273.56707	-28.97735	230.81304	406.28793	-35.41918	176.12554	305.32527	-44.28973	540.84092	383.17197	-317.71645	603.00765	277.31560	-322.24221	474.06937	739.39764	-24.83085	453.57326	626.99762	-24.26014	397.74574	615.31940	9.86320	373.63488	754.74539	30.17600	346.93318	642.16511	10.70356	526.93337	739.86107	-322.84017	575.79466	609.39307	-309.91962	420.39004	698.38813	-342.04292	478.24946	567.45371	-324.86080	484.27933	891.18228	-29.10092	304.20049	909.98345	-115.55296	494.49313	889.21070	-288.06929	304.84974	897.56446	-221.40284	378.61150	1375.01401	-153.95135	445.06236	1315.06943	-7.44103	417.41086	1321.37002	-323.31589	490.95906	1286.45618	-145.96216	488.77148	1287.70634	-190.93565	505.22661	1090.78354	76.47086	472.73131	972.92870	48.36865	504.94566	1005.80513	106.17119	601.78540	928.80778	96.92972	675.69619	836.02060	84.79703	648.65768	813.18719	111.43466	419.54004	1193.33055	-386.43182	325.26057	996.01219	-346.17027	319.02074	1013.17526	-406.03896	318.72202	917.81980	-455.96227	287.61377	795.59849	-470.66938	252.73577	802.18327	-466.30006	419.87726	815.89789	-60.93684	432.32635	814.58968	-260.83146	421.11394	822.51090	-57.59275	422.15585	802.57898	-227.48227	
48	0.47000000	330.68675	447.59054	-42.68862	310.06390	374.68993	-25.66468	153.39323	113.29224	-82.70724	74.61340	92.29494	-118.81338	240.84967	43.24320	-63.26715	285.29224	55.99387	-120.97085	588.41849	456.32064	-295.39355	637.69067	415.60168	-298.65654	752.43457	123.33372	-283.63736	713.27394	54.86537	-238.47098	857.96735	130.67002	-308.87512	885.59085	178.83244	-255.28605	259.21620	273.66120	-28.96042	241.92079	406.89327	-35.58196	184.38717	307.46847	-44.12256	556.85764	381.82234	-318.32379	618.01812	275.56419	-322.46732	487.72881	736.92350	-24.79398	466.68635	624.85212	-23.85234	410.52123	613.41684	9.70146	387.06094	752.95015	29.43515	359.83747	640.52414	10.11296	543.17945	738.48535	-323.69768	592.03518	607.97004	-310.64092	436.73033	696.90570	-343.21866	494.40123	566.07483	-325.90458	498.63883	888.81805	-28.85356	319.23045	907.30571	-117.05554	510.39016	887.31541	-288.18405	320.37955	895.05742	-222.92006	393.05571	1372.89539	-155.08843	459.67190	1312.80586	-8.48715	431.66013	1319.10992	-324.52679	505.45381	1284.34520	-147.02921	503.29610	1285.61443	-192.01210	520.30217	1088.74124	75.29588	487.79137	970.67458	47.72317	520.39293	1003.77737	105.20993	617.01377	926.58698	95.23227	690.78160	833.72957	82.79300	663.98841	811.04953	109.83684	433.58353	1191.10572	-387.58375	338.79932	994.11837	-347.22958	332.23323	1011.61425	-407.03495	330.21195	916.68195	-457.32101	297.04055	795.00945	-472.29399	261.95581	802.13852	-466.96210	434.56564	813.43052	-61.62613	448.42627	812.47574	-261.43491	435.90000	819.99549	-57.79363	437.74742	800.30690	-227.98594	
49	0.48000000	343.16992	445.89638	-42.98942	320.88929	373.39106	-25.85127	156.25298	116.58199	-82.21777	77.08336	97.58010	-118.43175	241.59369	43.32422	-63.14707	286.21957	55.32824	-120.85282	605.34920	455.07731	-295.40490	654.31101	413.12593	-298.09532	762.53023	118.92881	-282.39012	722.18459	51.61148	-237.84341	868.52555	125.08342	-306.56129	895.98191	172.93549	-252.62936	267.10508	273.88313	-28.95980	253.78732	407.54255	-35.77419	193.25695	309.84838	-44.05549	573.07029	381.11275	-318.76557	631.79402	273.72404	-322.46005	501.81193	734.53653	-25.00659	480.32011	622.70985	-23.75855	423.90750	611.47472	9.32392	400.96767	751.11019	28.52478	373.32910	638.78349	9.37384	560.04070	737.65358	-324.41196	609.25710	607.36252	-311.11742	453.81477	695.59907	-344.54345	511.72050	565.11485	-327.03606	513.34229	886.48495	-28.85941	334.52978	904.74671	-118.40222	526.38275	885.82643	-288.48363	336.08067	892.73897	-224.24144	407.58382	1370.89744	-156.32198	474.35341	1310.75236	-9.63191	446.05369	1317.03161	-325.78491	520.05646	1282.37048	-148.17604	517.95018	1283.67045	-193.15795	535.14114	1086.79428	74.00074	502.47745	968.59234	46.83769	535.39774	1001.84444	104.09099	631.73861	924.30954	93.57167	705.15083	831.21754	80.87063	678.52673	808.72436	108.25894	447.84407	1189.04331	-388.77943	352.75646	992.30303	-348.27494	345.91209	1010.06103	-408.05079	342.40378	915.53295	-458.59085	307.40686	794.37693	-473.72958	272.06730	802.03606	-467.52815	449.65989	811.02273	-62.48269	464.63820	810.69568	-262.21571	451.00439	817.65608	-58.21924	453.50265	798.32110	-228.67791	
